<svg width="24" height="24" viewBox="0 0 24 24" fill="none" xmlns="http://www.w3.org/2000/svg">
<path d="M14 4C14 5.10457 13.1046 6 12 6C10.8954 6 10 5.10457 10 4C10 2.89543 10.8954 2 12 2C13.1046 2 14 2.89543 14 4Z" fill="#4285F4" stroke="#4285F4" stroke-width="1.5"/>
<path d="M8.22309 11.5743L6.04779 10.8492C5.42206 10.6407 5 10.0551 5 9.39551C5 8.41993 5.89953 7.69274 6.85345 7.89715L8.75102 8.30377C8.85654 8.32638 8.9093 8.33769 8.96161 8.34851C10.966 8.76311 13.034 8.76311 15.0384 8.34851C15.0907 8.33769 15.1435 8.32638 15.249 8.30377L17.1465 7.89715C18.1005 7.69274 19 8.41993 19 9.39551C19 10.0551 18.5779 10.6407 17.9522 10.8492L15.7769 11.5743C15.514 11.662 15.3826 11.7058 15.2837 11.7668C14.9471 11.9746 14.7646 12.3613 14.8182 12.7532C14.834 12.8683 14.8837 12.9976 14.9832 13.2562L16.23 16.4979C16.6011 17.4629 15.8888 18.5 14.8549 18.5C14.3263 18.5 13.8381 18.2167 13.5758 17.7577L12 15L10.4242 17.7577C10.1619 18.2167 9.67373 18.5 9.14506 18.5C8.11118 18.5 7.39889 17.4629 7.77003 16.4979L9.01682 13.2562C9.11629 12.9976 9.16603 12.8683 9.18177 12.7532C9.23536 12.3613 9.05287 11.9746 8.71625 11.7668C8.61741 11.7058 8.48597 11.662 8.22309 11.5743Z" fill="#4285F4"/>
<path d="M6.04779 10.8492L6.28497 10.1377H6.28497L6.04779 10.8492ZM8.22309 11.5743L7.98592 12.2859H7.98592L8.22309 11.5743ZM9.01682 13.2562L8.31681 12.987H8.31681L9.01682 13.2562ZM7.77003 16.4979L8.47004 16.7671H8.47004L7.77003 16.4979ZM17.9522 10.8492L17.715 10.1377H17.715L17.9522 10.8492ZM15.7769 11.5743L16.0141 12.2859H16.0141L15.7769 11.5743ZM14.9832 13.2562L15.6832 12.987L14.9832 13.2562ZM16.23 16.4979L15.53 16.7671L16.23 16.4979ZM10.4242 17.7577L11.0754 18.1298L10.4242 17.7577ZM12 15L12.6512 14.6279C12.5177 14.3942 12.2691 14.25 12 14.25C11.7309 14.25 11.4823 14.3942 11.3488 14.6279L12 15ZM17.1465 7.89715L16.9894 7.1638L17.1465 7.89715ZM15.249 8.30377L15.4061 9.03712V9.03712L15.249 8.30377ZM8.75102 8.30377L8.90817 7.57042V7.57042L8.75102 8.30377ZM6.85345 7.89715L6.69631 8.6305L6.85345 7.89715ZM13.5758 17.7577L12.9246 18.1298V18.1298L13.5758 17.7577ZM15.0384 8.34851L14.8865 7.61405L14.8865 7.61406L15.0384 8.34851ZM8.96161 8.34851L8.80969 9.08296L8.80969 9.08296L8.96161 8.34851ZM15.2837 11.7668L15.6777 12.405L15.2837 11.7668ZM14.8182 12.7532L15.5613 12.6516V12.6516L14.8182 12.7532ZM8.71625 11.7668L8.3223 12.405H8.3223L8.71625 11.7668ZM9.18177 12.7532L9.92485 12.8548V12.8548L9.18177 12.7532ZM5.81062 11.5608L7.98592 12.2859L8.46026 10.8628L6.28497 10.1377L5.81062 11.5608ZM8.31681 12.987L7.07002 16.2287L8.47004 16.7671L9.71683 13.5255L8.31681 12.987ZM17.715 10.1377L15.5397 10.8628L16.0141 12.2859L18.1894 11.5608L17.715 10.1377ZM14.2832 13.5255L15.53 16.7671L16.93 16.2287L15.6832 12.987L14.2832 13.5255ZM11.0754 18.1298L12.6512 15.3721L11.3488 14.6279L9.77299 17.3856L11.0754 18.1298ZM16.9894 7.1638L15.0918 7.57042L15.4061 9.03712L17.3037 8.6305L16.9894 7.1638ZM8.90817 7.57042L7.0106 7.1638L6.69631 8.6305L8.59387 9.03712L8.90817 7.57042ZM11.3488 15.3721L12.9246 18.1298L14.227 17.3856L12.6512 14.6279L11.3488 15.3721ZM15.0918 7.57042C14.9853 7.59324 14.9356 7.6039 14.8865 7.61405L15.1903 9.08296C15.2458 9.07148 15.3016 9.05952 15.4061 9.03712L15.0918 7.57042ZM8.59387 9.03712C8.6984 9.05952 8.75416 9.07148 8.80969 9.08296L9.11353 7.61406C9.06443 7.6039 9.01468 7.59324 8.90817 7.57042L8.59387 9.03712ZM14.8865 7.61406C12.9823 8.00793 11.0177 8.00793 9.11353 7.61406L8.80969 9.08296C10.9143 9.51829 13.0857 9.51829 15.1903 9.08296L14.8865 7.61406ZM9.14506 19.25C9.94287 19.25 10.6795 18.8225 11.0754 18.1298L9.77299 17.3856C9.64422 17.6109 9.40459 17.75 9.14506 17.75V19.25ZM15.53 16.7671C15.7122 17.2408 15.3625 17.75 14.8549 17.75V19.25C16.4152 19.25 17.4901 17.6849 16.93 16.2287L15.53 16.7671ZM15.5397 10.8628C15.3178 10.9368 15.0816 11.0102 14.8898 11.1286L15.6777 12.405C15.6688 12.4105 15.6763 12.4039 15.7342 12.382C15.795 12.359 15.877 12.3316 16.0141 12.2859L15.5397 10.8628ZM15.6832 12.987C15.6313 12.8521 15.6004 12.7714 15.5795 12.7098C15.5596 12.6512 15.5599 12.6413 15.5613 12.6516L14.0751 12.8548C14.1057 13.0781 14.1992 13.3071 14.2832 13.5255L15.6832 12.987ZM14.8898 11.1286C14.3007 11.4922 13.9814 12.1689 14.0751 12.8548L15.5613 12.6516C15.5479 12.5536 15.5935 12.4569 15.6777 12.405L14.8898 11.1286ZM18.25 9.39551C18.25 9.73227 18.0345 10.0312 17.715 10.1377L18.1894 11.5608C19.1214 11.2501 19.75 10.3779 19.75 9.39551H18.25ZM7.07002 16.2287C6.50994 17.6849 7.58484 19.25 9.14506 19.25V17.75C8.63751 17.75 8.28784 17.2408 8.47004 16.7671L7.07002 16.2287ZM7.98592 12.2859C8.12301 12.3316 8.20501 12.359 8.26583 12.382C8.32371 12.4039 8.33115 12.4105 8.3223 12.405L9.1102 11.1286C8.91842 11.0102 8.68219 10.9368 8.46026 10.8628L7.98592 12.2859ZM9.71683 13.5255C9.80081 13.3071 9.89432 13.0781 9.92485 12.8548L8.43868 12.6516C8.44009 12.6413 8.4404 12.6512 8.42051 12.7098C8.3996 12.7714 8.36869 12.8521 8.31681 12.987L9.71683 13.5255ZM8.3223 12.405C8.40646 12.4569 8.45208 12.5536 8.43868 12.6516L9.92485 12.8548C10.0186 12.1689 9.69929 11.4922 9.1102 11.1286L8.3223 12.405ZM4.25 9.39551C4.25 10.3779 4.87863 11.2501 5.81062 11.5608L6.28497 10.1377C5.96549 10.0312 5.75 9.73227 5.75 9.39551H4.25ZM5.75 9.39551C5.75 8.89742 6.20927 8.52614 6.69631 8.6305L7.0106 7.1638C5.58979 6.85934 4.25 7.94245 4.25 9.39551H5.75ZM12.9246 18.1298C13.3205 18.8225 14.0571 19.25 14.8549 19.25V17.75C14.5954 17.75 14.3558 17.6109 14.227 17.3856L12.9246 18.1298ZM19.75 9.39551C19.75 7.94245 18.4102 6.85934 16.9894 7.1638L17.3037 8.6305C17.7907 8.52614 18.25 8.89741 18.25 9.39551H19.75Z" fill="#4285F4"/>
</svg>
