<svg width="24" height="24" viewBox="0 0 24 24" fill="none" xmlns="http://www.w3.org/2000/svg">
<path d="M17 13.9999L17.0528 13.8944C17.3343 13.3313 17.3343 12.6686 17.0528 12.1055V12.1055C17.0205 12.0408 16.9543 11.9999 16.882 11.9999H11H10.923M14 13.9999L14.0528 13.8944C14.3343 13.3313 14.3343 12.6686 14.0528 12.1055L14 11.9999M10.923 11.9999C10.923 11.8738 10.8992 11.7477 10.8515 11.6285L10.4515 10.6285C10.2996 10.2489 9.93191 9.99994 9.523 9.99994H8.00003C7.44775 9.99994 7.00003 10.4477 7.00003 10.9999V12.9999C7.00003 13.5522 7.44775 13.9999 8.00004 13.9999H9.523C9.93191 13.9999 10.2996 13.751 10.4515 13.3713L10.8515 12.3713C10.8992 12.2521 10.923 12.126 10.923 11.9999ZM2.47375 11.9999C2.47375 9.45265 2.47375 8.17901 3.02499 7.10448C3.10048 6.95732 3.18323 6.814 3.27292 6.67504C3.92788 5.6604 5.03088 5.02358 7.23689 3.74993C9.4429 2.47629 10.5459 1.83947 11.7521 1.77959C11.9173 1.77139 12.0828 1.77139 12.248 1.77959C13.4542 1.83947 14.5572 2.47629 16.7632 3.74993C18.9692 5.02358 20.0722 5.6604 20.7271 6.67504C20.8168 6.814 20.8996 6.95732 20.9751 7.10448C21.5263 8.17901 21.5263 9.45265 21.5263 11.9999C21.5263 14.5472 21.5263 15.8209 20.9751 16.8954C20.8996 17.0425 20.8168 17.1859 20.7271 17.3248C20.0722 18.3395 18.9692 18.9763 16.7632 20.2499C14.5572 21.5236 13.4542 22.1604 12.248 22.2203C12.0828 22.2285 11.9173 22.2285 11.7521 22.2203C10.5459 22.1604 9.4429 21.5236 7.23689 20.2499C5.03088 18.9763 3.92788 18.3395 3.27292 17.3248C3.18323 17.1859 3.10048 17.0425 3.02499 16.8954C2.47375 15.8209 2.47375 14.5472 2.47375 11.9999Z" stroke="#2D264B" stroke-width="1.5" stroke-linecap="round"/>
</svg>
