<svg width="21" height="18" viewBox="0 0 21 18" fill="none" xmlns="http://www.w3.org/2000/svg">
<path d="M18.0784 3.79014C18.4686 4.66325 18.6339 5.8534 18.9181 7.89945C19.3542 11.0399 19.5723 12.6101 19.0928 13.8297C18.6718 14.9003 17.8945 15.793 16.892 16.3573C15.75 17 14.1647 17 10.9941 17H9.36995C6.19935 17 4.61405 17 3.47208 16.3573C2.46954 15.793 1.69225 14.9003 1.27127 13.8297C0.791745 12.6101 1.00983 11.0399 1.44601 7.89945C1.71208 5.98369 1.87394 4.81829 2.21376 3.96093M18.0784 3.79014C18.0022 3.61965 17.9175 3.46125 17.8216 3.31092C17.3043 2.50008 16.5642 1.85563 15.6899 1.45483C14.6977 1 13.4632 1 10.9941 1H9.36995C6.90089 1 5.66636 1 4.6742 1.45483C3.79991 1.85563 3.05976 2.50008 2.5425 3.31092C2.41533 3.51027 2.30774 3.72382 2.21376 3.96093M18.0784 3.79014L17.9899 3.87868L17.1318 4.7368C13.7984 8.07013 12.1318 9.7368 10.0607 9.7368C7.98963 9.7368 6.32297 8.07013 2.98963 4.7368L2.21376 3.96093" stroke="#2D264B" stroke-width="1.5"/>
</svg>
