<svg width="22" height="18" viewBox="0 0 22 18" fill="none" xmlns="http://www.w3.org/2000/svg">
<path d="M11 11.25C10.5858 11.25 10.25 11.5858 10.25 12C10.25 12.4142 10.5858 12.75 11 12.75V11.25ZM14.75 9C14.75 8.58579 14.4142 8.25 14 8.25C13.5858 8.25 13.25 8.58579 13.25 9H14.75ZM2.22067 7.1254L1.61141 6.68801L2.22067 7.1254ZM2.22045 10.8743L2.82971 10.4369L2.82971 10.4369L2.22045 10.8743ZM4.78797 13.8928L5.35092 13.3972L5.33191 13.3756L5.3113 13.3556L4.78797 13.8928ZM17.101 4L16.5824 4.54174L16.6037 4.56213L16.6265 4.58079L17.101 4ZM1.33692 8.99998L0.586916 8.99997L1.33692 8.99998ZM19.7793 10.8746L20.3886 11.312V11.312L19.7793 10.8746ZM19.7793 7.12532L19.17 7.56271L19.17 7.56271L19.7793 7.12532ZM19.3953 5.39076C19.1332 5.07003 18.6607 5.02252 18.34 5.28464C18.0193 5.54676 17.9718 6.01925 18.2339 6.33998L19.3953 5.39076ZM6.93753 14.7322C6.60111 14.4905 6.13249 14.5674 5.89085 14.9038C5.64921 15.2402 5.72604 15.7088 6.06247 15.9505L6.93753 14.7322ZM20.6631 8.99999L19.9131 9L20.6631 8.99999ZM0.531479 16.4143C0.208032 16.6731 0.155591 17.1451 0.414348 17.4685C0.673106 17.792 1.14507 17.8444 1.46852 17.5857L0.531479 16.4143ZM21.4685 1.58565C21.792 1.32689 21.8444 0.854925 21.5857 0.531479C21.3269 0.208032 20.8549 0.155591 20.5315 0.414348L21.4685 1.58565ZM17.1747 4.06021L17.6433 4.64586L17.1747 4.06021ZM4.82765 13.9379L5.29617 14.5235L4.82765 13.9379ZM11 5.25C8.92893 5.25 7.25 6.92893 7.25 9H8.75C8.75 7.75736 9.75736 6.75 11 6.75V5.25ZM7.25 9C7.25 9.8808 7.5546 10.6925 8.06365 11.3326L9.23767 10.399C8.93209 10.0148 8.75 9.52968 8.75 9H7.25ZM13.9274 6.65611C13.2414 5.80021 12.1847 5.25 11 5.25V6.75C11.7103 6.75 12.3434 7.07824 12.7569 7.59423L13.9274 6.65611ZM11 12.75C13.0711 12.75 14.75 11.0711 14.75 9H13.25C13.25 10.2426 12.2426 11.25 11 11.25V12.75ZM11 0.25C8.85904 0.25 6.92324 1.30899 5.35173 2.59572C3.77163 3.88946 2.47961 5.47865 1.61141 6.68801L2.82992 7.56279C3.65919 6.40765 4.86348 4.93414 6.302 3.75631C7.7491 2.57146 9.35423 1.75 11 1.75V0.25ZM1.61118 11.3117C2.27304 12.2336 3.17749 13.371 4.26464 14.4301L5.3113 13.3556C4.30603 12.3763 3.45829 11.3125 2.82971 10.4369L1.61118 11.3117ZM17.6197 3.45826C15.8873 1.79958 13.5908 0.25 11 0.25V1.75C13.0028 1.75 14.9382 2.96762 16.5824 4.54174L17.6197 3.45826ZM1.61141 6.68801C1.05704 7.46023 0.586923 8.07137 0.586916 8.99997L2.08692 8.99998C2.08692 8.64146 2.20597 8.43192 2.82992 7.56279L1.61141 6.68801ZM2.82971 10.4369C2.20592 9.56798 2.08691 9.35851 2.08692 8.99998L0.586916 8.99997C0.586909 9.92855 1.05693 10.5396 1.61119 11.3117L2.82971 10.4369ZM11 17.75C13.141 17.75 15.0768 16.691 16.6483 15.4043C18.2284 14.1105 19.5204 12.5214 20.3886 11.312L19.1701 10.4372C18.3408 11.5923 17.1365 13.0659 15.698 14.2437C14.2509 15.4285 12.6458 16.25 11 16.25V17.75ZM20.3885 6.68793C20.1009 6.28722 19.7682 5.84694 19.3953 5.39076L18.2339 6.33998C18.5844 6.76885 18.8981 7.18393 19.17 7.56271L20.3885 6.68793ZM6.06247 15.9505C7.487 16.9737 9.16759 17.75 11 17.75V16.25C9.59519 16.25 8.21818 15.652 6.93753 14.7322L6.06247 15.9505ZM20.3886 11.312C20.943 10.5398 21.4131 9.9286 21.4131 8.99999L19.9131 9C19.9131 9.35852 19.794 9.56806 19.1701 10.4372L20.3886 11.312ZM19.17 7.56271C19.794 8.43191 19.9131 8.64147 19.9131 9L21.4131 8.99999C21.4131 8.07138 20.9429 7.4602 20.3885 6.68793L19.17 7.56271ZM17.6433 4.64586L21.4685 1.58565L20.5315 0.414348L16.7062 3.47456L17.6433 4.64586ZM16.6265 4.58079L16.7002 4.64101L17.6493 3.47942L17.5756 3.41921L16.6265 4.58079ZM1.46852 17.5857L5.29617 14.5235L4.35913 13.3522L0.531479 16.4143L1.46852 17.5857ZM5.29617 14.5235L17.6433 4.64586L16.7062 3.47456L4.35913 13.3522L5.29617 14.5235ZM4.22503 14.3884L4.2647 14.4335L5.39059 13.4423L5.35092 13.3972L4.22503 14.3884Z" fill="#2D264B"/>
</svg>
