<svg width="22" height="22" viewBox="0 0 22 22" fill="none" xmlns="http://www.w3.org/2000/svg">
<path d="M15.9999 13.0001L16.0527 12.8945C16.3342 12.3314 16.3342 11.6687 16.0527 11.1056V11.1056C16.0203 11.0409 15.9542 11.0001 15.8819 11.0001H9.99991H9.92288M12.9999 13.0001L13.0527 12.8945C13.3342 12.3314 13.3342 11.6687 13.0527 11.1056L12.9999 11.0001M9.92288 11.0001C9.92288 10.874 9.89904 10.7479 9.85136 10.6287L9.45136 9.62867C9.29949 9.24901 8.93178 9.00006 8.52288 9.00006H6.99991C6.44763 9.00006 5.99991 9.44777 5.99991 10.0001V12.0001C5.99991 12.5523 6.44763 13.0001 6.99991 13.0001H8.52288C8.93178 13.0001 9.29949 12.7511 9.45136 12.3714L9.85136 11.3714C9.89904 11.2522 9.92288 11.1261 9.92288 11.0001ZM1.47363 11.0001C1.47363 8.45278 1.47363 7.17914 2.02486 6.1046C2.10036 5.95744 2.1831 5.81412 2.2728 5.67516C2.92776 4.66052 4.03076 4.0237 6.23677 2.75006C8.44278 1.47642 9.54579 0.839596 10.752 0.779711C10.9172 0.771509 11.0827 0.771509 11.2478 0.779711C12.454 0.839596 13.557 1.47642 15.7631 2.75006C17.9691 4.0237 19.0721 4.66052 19.727 5.67516C19.8167 5.81412 19.8995 5.95744 19.975 6.1046C20.5262 7.17914 20.5262 8.45278 20.5262 11.0001C20.5262 13.5473 20.5262 14.821 19.975 15.8955C19.8995 16.0427 19.8167 16.186 19.727 16.325C19.0721 17.3396 17.9691 17.9764 15.7631 19.2501C13.557 20.5237 12.454 21.1605 11.2478 21.2204C11.0827 21.2286 10.9172 21.2286 10.752 21.2204C9.54579 21.1605 8.44278 20.5237 6.23677 19.2501C4.03076 17.9764 2.92776 17.3396 2.2728 16.325C2.1831 16.186 2.10036 16.0427 2.02486 15.8955C1.47363 14.821 1.47363 13.5473 1.47363 11.0001Z" stroke="#2D264B" stroke-width="1.5" stroke-linecap="round"/>
</svg>
