<svg width="16" height="20" viewBox="0 0 16 20" fill="none" xmlns="http://www.w3.org/2000/svg">
<g clip-path="url(#clip0_368_487)">
<path fill-rule="evenodd" clip-rule="evenodd" d="M7.56215 19.3142C7.95734 19.3142 15.0186 11.7696 15.0186 7.65151C15.0186 3.53343 11.6802 0.195068 7.56215 0.195068C3.44407 0.195068 0.105713 3.53343 0.105713 7.65151C0.105713 11.7696 7.16697 19.3142 7.56215 19.3142ZM7.56216 11.381C9.65003 11.381 11.3426 9.68839 11.3426 7.60052C11.3426 5.51265 9.65003 3.8201 7.56216 3.8201C5.4743 3.8201 3.78175 5.51265 3.78175 7.60052C3.78175 9.68839 5.4743 11.381 7.56216 11.381Z" fill="#B00020"/>
<path fill-rule="evenodd" clip-rule="evenodd" d="M0.105713 7.65151C0.105713 11.7696 7.16697 19.3142 7.56215 19.3142V11.381C5.47429 11.3809 3.78175 9.68838 3.78175 7.60052C3.78175 5.51266 5.47429 3.82011 7.56215 3.8201V0.195068C3.44407 0.195068 0.105713 3.53343 0.105713 7.65151Z" fill="#B00020"/>
</g>
<defs>
<clipPath id="clip0_368_487">
<rect width="16" height="20" fill="white"/>
</clipPath>
</defs>
</svg>
